/* XPM */
static char * hi64_app_kdesvn_xpm[] = {
"64 55 384 2",
"  	c None",
". 	c #809CC9",
"+ 	c #819CC9",
"@ 	c #819DC9",
"# 	c #829DCA",
"$ 	c #829ECA",
"% 	c #839ECA",
"& 	c #839FCA",
"* 	c #849FCB",
"= 	c #859FCB",
"- 	c #85A0CB",
"; 	c #86A0CB",
"> 	c #86A1CC",
", 	c #87A1CC",
"' 	c #87A2CC",
") 	c #88A2CC",
"! 	c #89A3CD",
"~ 	c #8AA3CD",
"{ 	c #8AA4CD",
"] 	c #8BA4CE",
"^ 	c #8BA5CE",
"/ 	c #8CA5CE",
"( 	c #8DA6CE",
"_ 	c #8DA6CF",
": 	c #8EA7CF",
"< 	c #8FA7CF",
"[ 	c #8FA8D0",
"} 	c #90A8D0",
"| 	c #91A9D0",
"1 	c #8FA8CF",
"2 	c #849FCA",
"3 	c #8298BC",
"4 	c #62728D",
"5 	c #7084A2",
"6 	c #8CA3C9",
"7 	c #455164",
"8 	c #272B32",
"9 	c #232528",
"0 	c #121315",
"a 	c #191E25",
"b 	c #6C7F9E",
"c 	c #56647B",
"d 	c #66696F",
"e 	c #8A8A8A",
"f 	c #A8A8A8",
"g 	c #808080",
"h 	c #212223",
"i 	c #0F1215",
"j 	c #7B90B4",
"k 	c #879DC1",
"l 	c #78818F",
"m 	c #BABABA",
"n 	c #FEFEFE",
"o 	c #FFFFFF",
"p 	c #ACACAC",
"q 	c #1F2122",
"r 	c #394353",
"s 	c #89A0C5",
"t 	c #B2B8C1",
"u 	c #EBEBEB",
"v 	c #F7F7F7",
"w 	c #424344",
"x 	c #29303C",
"y 	c #CCD3DF",
"z 	c #F1F1F1",
"A 	c #595A5B",
"B 	c #374151",
"C 	c #B0C1DD",
"D 	c #FBFBFB",
"E 	c #BDBDBD",
"F 	c #595D65",
"G 	c #5B6B86",
"H 	c #E3E9F3",
"I 	c #F2F4F9",
"J 	c #F2F3F6",
"K 	c #E8E8E8",
"L 	c #CDCDCD",
"M 	c #8C929A",
"N 	c #515F75",
"O 	c #8BA3CC",
"P 	c #E2E9F3",
"Q 	c #ECF0F7",
"R 	c #96ADD2",
"S 	c #93AAD1",
"T 	c #A3B6D6",
"U 	c #7F93B2",
"V 	c #7589AA",
"W 	c #8BA3CA",
"X 	c #E1E8F2",
"Y 	c #7088AE",
"Z 	c #4E5F79",
"` 	c #4C5C75",
" .	c #607494",
"..	c #7C94BE",
"+.	c #8CA4CC",
"@.	c #4D5B72",
"#.	c #333D4B",
"$.	c #384251",
"%.	c #536178",
"&.	c #7D93B6",
"*.	c #DFE6F1",
"=.	c #97AED2",
"-.	c #88A1C9",
";.	c #687B9B",
">.	c #4D5C73",
",.	c #3F4C5F",
"'.	c #48566C",
").	c #7E96BD",
"!.	c #546582",
"~.	c #1D222A",
"{.	c #424449",
"].	c #67696C",
"^.	c #7A7E85",
"/.	c #69778F",
"(.	c #7991B9",
"_.	c #242A34",
":.	c #1E2023",
"<.	c #4D4D4E",
"[.	c #7D7D7E",
"}.	c #818386",
"|.	c #C9CDD3",
"1.	c #E8ECF2",
"2.	c #8AA3CB",
"3.	c #7587A4",
"4.	c #9398A0",
"5.	c #929394",
"6.	c #747576",
"7.	c #3E4044",
"8.	c #1F252E",
"9.	c #768DB2",
"0.	c #728AB1",
"a.	c #0D0F13",
"b.	c #3D3E3E",
"c.	c #C9C9C9",
"d.	c #F8F8F8",
"e.	c #E1E1E1",
"f.	c #B5B6B7",
"g.	c #7C8EAA",
"h.	c #849EC9",
"i.	c #4D5A71",
"j.	c #08090A",
"k.	c #686868",
"l.	c #F2F2F2",
"m.	c #F6F6F6",
"n.	c #808DA4",
"o.	c #8FA7CE",
"p.	c #849CC2",
"q.	c #BBBFC6",
"r.	c #DEDEDE",
"s.	c #AFAFAF",
"t.	c #27282A",
"u.	c #282F3C",
"v.	c #495972",
"w.	c #0B0C0D",
"x.	c #B2B2B2",
"y.	c #E7E7E7",
"z.	c #AFB6C1",
"A.	c #869EC6",
"B.	c #8EA6CF",
"C.	c #8FA6CF",
"D.	c #90A9D0",
"E.	c #2E3540",
"F.	c #151515",
"G.	c #E9E9E9",
"H.	c #E0E0E0",
"I.	c #AAB1BC",
"J.	c #92A7CB",
"K.	c #96ACD2",
"L.	c #95ACD1",
"M.	c #93ABD1",
"N.	c #92AAD1",
"O.	c #92AAD0",
"P.	c #9CADCA",
"Q.	c #5C5C5C",
"R.	c #0A0C0F",
"S.	c #859FC8",
"T.	c #3A465A",
"U.	c #0C0D0D",
"V.	c #DADADA",
"W.	c #C7C9CD",
"X.	c #EEF0F3",
"Y.	c #F6F8FB",
"Z.	c #F7F8FB",
"`.	c #F7F9FB",
" +	c #ECEDED",
".+	c #EAEAEA",
"++	c #FDFDFD",
"@+	c #F9F9FA",
"#+	c #F8F9FB",
"$+	c #F9FAFC",
"%+	c #F8FAFC",
"&+	c #F8F9FC",
"*+	c #FCFCFC",
"=+	c #888888",
"-+	c #07080A",
";+	c #7D95BC",
">+	c #4C5D77",
",+	c #A5A5A5",
"'+	c #E2E2E2",
")+	c #AAB2BF",
"!+	c #829BC5",
"~+	c #323B4A",
"{+	c #0B0C0C",
"]+	c #B8B8B8",
"^+	c #969FAF",
"/+	c #8DA5CB",
"(+	c #899FC2",
"_+	c #D1D2D3",
":+	c #FAFAFA",
"<+	c #3C3C3D",
"[+	c #13161C",
"}+	c #7792BA",
"|+	c #12151B",
"1+	c #343536",
"2+	c #B1B1B1",
"3+	c #D0D0D0",
"4+	c #ACAEB1",
"5+	c #7689A8",
"6+	c #7387A9",
"7+	c #0B0D0F",
"8+	c #313233",
"9+	c #A2A2A2",
"0+	c #CBCBCB",
"a+	c #C2C2C2",
"b+	c #F5F5F6",
"c+	c #A5B1C4",
"d+	c #869FC6",
"e+	c #97A1B3",
"f+	c #BBBBBC",
"g+	c #D2D2D2",
"h+	c #C3C3C3",
"i+	c #666667",
"j+	c #1D1F23",
"k+	c #4C5B73",
"l+	c #617597",
"m+	c #212832",
"n+	c #3B3F45",
"o+	c #5E6267",
"p+	c #6E7580",
"q+	c #7C95BD",
"r+	c #5D6E88",
"s+	c #1E222A",
"t+	c #33373B",
"u+	c #53565C",
"v+	c #5B626D",
"w+	c #8794A7",
"x+	c #BDCBE3",
"y+	c #798FB3",
"z+	c #687488",
"A+	c #6A707A",
"B+	c #51555D",
"C+	c #2B313A",
"D+	c #7993BD",
"E+	c #5C6F8F",
"F+	c #586A87",
"G+	c #6A80A3",
"H+	c #8099C4",
"I+	c #859DC4",
"J+	c #667895",
"K+	c #61728D",
"L+	c #7A8FB1",
"M+	c #B1C2DE",
"N+	c #BDCCE3",
"O+	c #839BC3",
"P+	c #6E82A3",
"Q+	c #687B9A",
"R+	c #7B92B8",
"S+	c #B4C4DE",
"T+	c #BDCBE2",
"U+	c #8197BB",
"V+	c #8196BA",
"W+	c #89A1C6",
"X+	c #829CC6",
"Y+	c #738AAF",
"Z+	c #667A9C",
"`+	c #6C82A6",
" @	c #829CC7",
".@	c #B5C5DF",
"+@	c #ECEDEF",
"@@	c #747D8B",
"#@	c #848C97",
"$@	c #A9AEB6",
"%@	c #AEB6C1",
"&@	c #8B9DBA",
"*@	c #829DC7",
"=@	c #788AA8",
"-@	c #868E9C",
";@	c #747A82",
">@	c #4C535E",
",@	c #384355",
"'@	c #748CB3",
")@	c #555C68",
"!@	c #8E8E8E",
"~@	c #E5E5E5",
"{@	c #CCCDCF",
"]@	c #8B9BB4",
"^@	c #8AA2CB",
"/@	c #96AAC9",
"(@	c #D0D1D3",
"_@	c #DFDFDF",
":@	c #AAAAAA",
"<@	c #434549",
"[@	c #2C3544",
"}@	c #657692",
"|@	c #3F4349",
"1@	c #ADADAD",
"2@	c #ADB2B8",
"3@	c #798EB2",
"4@	c #D6DCE5",
"5@	c #F4F4F4",
"6@	c #1E2126",
"7@	c #667C9E",
"8@	c #4B586C",
"9@	c #3B3C3F",
"0@	c #CFCFCF",
"a@	c #AEAFAF",
"b@	c #C4C6C9",
"c@	c #F3F5F9",
"d@	c #F2F5F9",
"e@	c #F1F4F9",
"f@	c #F0F3F8",
"g@	c #F1F2F2",
"h@	c #BFBFBF",
"i@	c #232529",
"j@	c #51627D",
"k@	c #4F5C72",
"l@	c #242628",
"m@	c #A7A7A7",
"n@	c #EDEDED",
"o@	c #888A8D",
"p@	c #6B7A92",
"q@	c #9DB2D4",
"r@	c #9BB1D4",
"s@	c #9AB0D4",
"t@	c #99AFD3",
"u@	c #98AFD3",
"v@	c #97AED3",
"w@	c #94ABD1",
"x@	c #DFE3EA",
"y@	c #A4A4A4",
"z@	c #202328",
"A@	c #5E7393",
"B@	c #869CC0",
"C@	c #111317",
"D@	c #363637",
"E@	c #8B8B8B",
"F@	c #4E545E",
"G@	c #7084A5",
"H@	c #AAB9D2",
"I@	c #DDDDDD",
"J@	c #F5F5F5",
"K@	c #515254",
"L@	c #7C97C1",
"M@	c #57667D",
"N@	c #0C0E10",
"O@	c #1D1E1F",
"P@	c #343535",
"Q@	c #3E3F40",
"R@	c #33373D",
"S@	c #4B586E",
"T@	c #809AC4",
"U@	c #909DB2",
"V@	c #9EA2A8",
"W@	c #8A8C8E",
"X@	c #5D6167",
"Y@	c #2F3642",
"Z@	c #637899",
"`@	c #7083A1",
" #	c #2C3440",
".#	c #20262F",
"+#	c #2D3542",
"@#	c #5E6F89",
"##	c #7B93BB",
"$#	c #667B9C",
"%#	c #546681",
"&#	c #556784",
"*#	c #758DB3",
"=#	c #809BC9",
"-#	c #809CC8",
";#	c #999999",
">#	c #809CCA",
",#	c #809DCA",
"'#	c #989898",
")#	c #9A9A9A",
"  . . + @ # $ % & * = - ; > , ' ) ! ! ~ { ] ^ / ( _ : : < [ } |     | } } 1 : : _ ( / / ] { { ! ! ) ) , > ; - - * 2 % $ # @ + . ",
"  . . + @ # $ % & * = - ; > , ' ) ! ! ~ { ] ^ / ( _ : : < [ } | | | | } } 1 : : _ ( / / ] { { ! ! ) ) , > ; - - * 2 % $ # @ + . ",
"  . . + @ # $ % & * = - ; > , ' ) ! ! ~ { ] ^ / ( _ : : < [ } | | | | } } 1 : : _ ( / / ] { { ! ! ) ) , > ; - - * 2 % $ # @ + . ",
"  . . + @ # $ % & * = - ; > , ' ) ! ! ~ { ] ^ / ( _ : : < [ } | | | | } } 1 : : _ ( / / ] { { ! ! ) ) , > ; - - * 2 % $ # @ + . ",
"  . . + @ # $ % & * = - ; > , ' ) ! ! ~ { ] ^ / ( _ : : < [ } | | | | } } 1 : : _ ( / / ] { { ! ! ) ) , > ; - - * 2 % $ # @ + . ",
"  . . + @ # $ % & * = - ; > , ' ) ! ! ~ { ] ^ / ( _ : : < [ } | | | | } } 1 : : _ ( / / ] { { ! ! ) ) , > ; - - * 2 % $ # @ + . ",
"  . . + @ # $ % & * = - ; > , ' ) ! ! ~ { ] ^ / ( _ : : < [ } | | | | } } 1 : : _ ( / / ] { { ! ! ) ) , > ; - - * 2 % $ # @ + . ",
"  . . + @ # $ % & * = - ; > , ' ) ! ! ~ { ] ^ / ( _ : : < [ } | | | | } } 1 : : _ ( / / ] { { ! ! ) ) , > ; - - * 2 % $ # @ + . ",
"  . . + @ # $ % & * = - ; > , ' ) ! ! ~ { ] ^ / ( _ : : < [ } | | | | 3 4 5 : : _ ( / / ] { { ! ! ) ) , > ; - - * 2 % $ # @ + . ",
"  . . + @ # $ % & * = - ; > , ' ) ! ! ~ { ] ^ / ( _ : : < [ } | | 6 7 8 9 0 a b _ ( / / ] { { ! ! ) ) , > ; - - * 2 % $ # @ + . ",
"  . . + @ # $ % & * = - ; > , ' ) ! ! ~ { ] ^ / ( _ : : < [ } | | c d e f g h i j ( / / ] { { ! ! ) ) , > ; - - * 2 % $ # @ + . ",
"  . . + @ # $ % & * = - ; > , ' ) ! ! ~ { ] ^ / ( _ : : < [ } | k l m n o o p q r ( / / ] { { ! ! ) ) , > ; - - * 2 % $ # @ + . ",
"  . . + @ # $ % & * = - ; > , ' ) ! ! ~ { ] ^ / ( _ : : < [ } | s t u o o o v w x ( / / ] { { ! ! ) ) , > ; - - * 2 % $ # @ + . ",
"  . . + @ # $ % & * = - ; > , ' ) ! ! ~ { ] ^ / ( _ : : < [ } | | y z o o o v A B ( / / ] { { ! ! ) ) , > ; - - * 2 % $ # @ + . ",
"  . . + @ # $ % & * = - ; > , ' ) ! ! ~ { ] ^ / ( _ : : < [ } | | C D n o n E F G ( / / ] { { ! ! ) ) , > ; - - * 2 % $ # @ + . ",
"  . . + @ # $ % & * = - ; > , ' ) ! ! ~ { ] ^ / ( _ : : < [ } | | H I J K L M N O ( / / ] { { ! ! ) ) , > ; - - * 2 % $ # @ + . ",
"  . . + @ # $ % & * = - ; > , ' ) ! ! ~ { ] ^ / ( _ : : < [ } | P Q R S T U V W _ ( / / ] { { ! ! ) ) , > ; - - * 2 % $ # @ + . ",
"  . . + @ # $ % & * = - ; > , ' ) ! ! ~ { ] ^ / ( _ : : < [ } X Q R | } } 1 : : _ ( / / ] { { ! ! ) ) , > ; - - * 2 % $ # @ + . ",
"  . . + @ # Y Z `  ...- ; > , ' ) ! ! ~ { ] ^ / +.@.#.$.%.&.*.Q =.| | } } 1 : : _ ( / -.;.>.,.'.).) ) , > ; - - * 2 % $ # @ + . ",
"  . . + @ !.~.{.].^./.(.; > , ' ) ! ! ~ { ] ^ / _.:.<.[.}.|.1.=.| | | } } 1 : : _ ( 2.3.4.5.6.7.8.9.) , > ; - - * 2 % $ # @ + . ",
"  . . + 0.a.b.c.d.e.f.g.h.> , ' ) ! ! ~ { ] ^ i.j.k.l.o m.u n.o.| | | } } 1 : : _ ( p.q.r.o n s.t.u.) , > ; - - * 2 % $ # @ + . ",
"  . . + v.w.x.o o o y.z.A.{ ] ^ / _ B.C.1 } D.E.F.G.o o o H.I.J.=.=.=.K.K.L.M.M.N.O.P.r.o o o o Q.R.S., > ; - - * 2 % $ # @ + . ",
"  . . + T.U.V.o o o m.W.X.Y.Y.Y.Y.Y.Z.Z.`.`.`. +.+o o o o ++@+#+$+$+$+$+$+$+%+%+&+&+#+*+o o o o =+-+;+, > ; - - * 2 % $ # @ + . ",
"  . . + >+w.,+o o o '+)+!+> , ' ) ! ! ~ { ] ^ ~+{+]+o o o V.^+/+| | | } } 1 : : _ ( (+_+:+o o z <+[+) , > ; - - * 2 % $ # @ + . ",
"  . . + }+|+1+2+e.3+4+5+h.> , ' ) ! ! ~ { ] ^ 6+7+8+9+0+a+b+c+| | | | } } 1 : : _ ( d+e+f+g+h+i+j+k+) , > ; - - * 2 % $ # @ + . ",
"  . . + @ l+m+n+o+p+4 q+; > , ' ) ! ! ~ { ] ^ / r+s+t+u+v+w+&+x+| | | } } 1 : : _ ( / y+z+A+B+C+'.) ) , > ; - - * 2 % $ # @ + . ",
"  . . + @ # D+E+F+G+H+- ; > , ' ) ! ! ~ { ] ^ / ( I+J+K+L+[ M+&+N+| | } } 1 : : _ ( / / O+P+Q+R+! ) ) , > ; - - * 2 % $ # @ + . ",
"  . . + @ # $ % & * = - ; > , ' ) ! ! ~ { ] ^ / ( _ : : < [ } S+&+T+o.U+V+W+: : _ ( / / ] { { ! ! ) ) , > X+Y+Z+`+ @% $ # @ + . ",
"  . . + @ # $ % & * = - ; > , ' ) ! ! ~ { ] ^ / ( _ : : < [ } | .@+@@@#@$@%@&@+._ ( / / ] { { ! ! ) ) , *@=@-@;@>@,@'@$ # @ + . ",
"  . . + @ # $ % & * = - ; > , ' ) ! ! ~ { ] ^ / ( _ : : < [ } | o.)@!@c..+~@{@]@^@( / / ] { { ! ! ) ) , /@(@_@H.:@<@[@@ # @ + . ",
"  . . + @ # $ % & * = - ; > , ' ) ! ! ~ { ] ^ / ( _ : : < [ } | }@|@1@o o o u 2@3@( / / ] { { ! ! ) ) , 4@5@o o o !@6@7@# @ + . ",
"  . . + @ # $ % & * = - ; > , ' ) ! ! ~ { ] ^ / ( _ : : < [ } | 8@9@0@o o o o a@b@c@d@d@d@e@e@e@e@f@f@f@g@o o o o h@i@j@# @ + . ",
"  . . + @ # $ % & * = - ; > , ' ) ! ! ~ { ] ^ / ( _ : : < [ } | k@l@m@o o o n@o@p@q@r@r@s@t@u@v@v@R R w@x@:+o o o y@z@A@# @ + . ",
"  . . + @ # $ % & * = - ; > , ' ) ! ! ~ { ] ^ / ( _ : : < [ } | B@C@D@h+n K E@F@G@( / / ] { { ! ! ) ) , H@I@J@n 3+K@m+L@# @ + . ",
"  . . + @ # $ % & * = - ; > , ' ) ! ! ~ { ] ^ / ( _ : : < [ } | | M@N@O@P@Q@R@S@_ ( / / ] { { ! ! ) ) , T@U@V@W@X@Y@Z@$ # @ + . ",
"  . . + @ # $ % & * = - ; > , ' ) ! ! ~ { ] ^ / ( _ : : < [ } | | | `@ #.#+#@#: _ ( / / ] { { ! ! ) ) , > ##$#%#&#*#% $ # @ + . ",
"  . . + @ # $ % & * = - ; > , ' ) ! ! ~ { ] ^ / ( _ : : < [ } | | | | } } 1 : : _ ( / / ] { { ! ! ) ) , > ; - - * 2 % $ # @ + . ",
"  . . + @ # $ % & * = - ; > , ' ) ! ! ~ { ] ^ / ( _ : : < [ } | | | | } } 1 : : _ ( / / ] { { ! ! ) ) , > ; - - * 2 % $ # @ + . ",
"  . . + @ # $ % & * = - ; > , ' ) ! ! ~ { ] ^ / ( _ : : < [ } | | | | } } 1 : : _ ( / / ] { { ! ! ) ) , > ; - - * 2 % $ # @ + . ",
"  . . + @ # $ % & * = - ; > , ' ) ! ! ~ { ] ^ / ( _ : : < [ } | | | | } } 1 : : _ ( / / ] { { ! ! ) ) , > ; - - * 2 % $ # @ + . ",
"  . . + @ # $ % & * = - ; > , ' ) ! ! ~ { ] ^ / ( _ : : < [ } | | | | } } 1 : : _ ( / / ] { { ! ! ) ) , > ; - - * 2 % $ # @ + . ",
"  . . + @ # $ % & * = - ; > , ' ) ! ! ~ { ] ^ / ( _ : : < [ } | | | | } } 1 : : _ ( / / ] { { ! ! ) ) , > ; - - * 2 % $ # @ + . ",
"  . . + @ # $ % & * = - ; > , ' ) ! ! ~ { ] ^ / ( _ : : < [ } | | | | } } 1 : : _ ( / / ] { { ! ! ) ) , > ; - - * 2 % $ # @ + . ",
"  . . + @ # $ % & * = - ; > , ' ) ! ! ~ { ] ^ / ( _ : : < [ } | | | | } } 1 : : _ ( / / ] { { ! ! ) ) , > ; - - * 2 % $ # @ + . ",
"  . . + @ # $ % & * = - ; > , ' ) ! ! ~ { ] ^ / ( _ : : < [ } | | | | } } 1 : : _ ( / / ] { { ! ! ) ) , > ; - - * 2 % $ # @ + . ",
"  . . + @ # $ % & * = - ; > , ' ) ! ! ~ { ] ^ / ( _ : : < [ } | | | | } } 1 : : _ ( / / ] { { ! ! ) ) , > ; - - * 2 % $ # @ + . ",
"                                                                                                                                ",
"                                                                                                                                ",
"  .                       =#  .                   -#                    ;#                    ;#    ;#                ;#    ;#  ",
"  . .                           >#                ,#                    '#                    ;#    ;#                )#;#  ;#  ",
"  . .                           .                 -#                      '#;#                    ;#                    ;#  ;#  ",
"  .   .                         .                 >#                                            '#;#                      '#;#  ",
"  .     >#                -#>#@                   . >#>#                ;#;#'#                  ;#                        '#;#  ",
"                                                                                                                                ",
"  . . . . . . . . . . . . . . . . . . . . . . . . . . . . . . . . . . . . . . . . . . . . . . . . . . . . . . . . . . . . . .   "};
