/* XPM */
static char *kdesvn_logo_klein[] = {
/* columns rows colors chars-per-pixel */
"75 64 223 2",
"   c black",
".  c #0A0B0D",
"X  c #0E0F11",
"o  c #0D1014",
"O  c #131415",
"+  c #121519",
"@  c #16191D",
"#  c #1A1B1C",
"$  c #141A22",
"%  c #191D22",
"&  c #1D2025",
"*  c #1B222C",
"=  c #1A2434",
"-  c #1D2839",
";  c #222426",
":  c #252628",
">  c #272829",
",  c #282829",
"<  c #252B33",
"1  c #212A38",
"2  c #2E2F31",
"3  c #27303E",
"4  c #2C323C",
"5  c #303133",
"6  c #30353D",
"7  c #34383F",
"8  c #393B3E",
"9  c #253247",
"0  c #2E3743",
"q  c #2C3749",
"w  c #2C3C55",
"e  c #333A44",
"r  c #323C4C",
"t  c #393C41",
"y  c #303C50",
"u  c #303F58",
"i  c #3E4043",
"p  c #39404C",
"a  c #30415E",
"s  c #3D4655",
"d  c #334561",
"f  c #394A66",
"g  c #3B4E6C",
"h  c #3C5273",
"j  c #3E5478",
"k  c #414142",
"l  c #494949",
"z  c #414852",
"x  c #494E55",
"c  c #4D5055",
"v  c #4D5159",
"b  c #555555",
"n  c #53565B",
"m  c #5A5A5A",
"M  c #455063",
"N  c #485365",
"B  c #4B586D",
"V  c #435573",
"C  c #445A7E",
"Z  c #4B5A71",
"A  c #4A5C7A",
"S  c #535964",
"D  c #555F70",
"F  c #4E607C",
"G  c #59616D",
"H  c #546175",
"J  c #5A6577",
"K  c #5A677E",
"L  c #636363",
"P  c #6E6E6E",
"I  c #656A73",
"U  c #6D6E71",
"Y  c #6C7076",
"T  c #757575",
"R  c #737579",
"E  c #7C7C7C",
"W  c blue",
"Q  c #465C80",
"!  c #465F88",
"~  c #4B658C",
"^  c #4A6590",
"/  c #556683",
"(  c #53698D",
")  c #586880",
"_  c #5E6E89",
"`  c #536B93",
"'  c #526E9C",
"]  c #53719F",
"[  c #5C7294",
"{  c #58739D",
"}  c #496DB6",
"|  c #4A73AE",
" . c #4A72B1",
".. c #5271AD",
"X. c #5E78A2",
"o. c #5A79AC",
"O. c #567CB8",
"+. c #5D7EB2",
"@. c #597EB9",
"#. c #636F82",
"$. c #62718A",
"%. c #607494",
"&. c #697891",
"*. c #6C7E9A",
"=. c #777D87",
"-. c #747C8A",
";. c #787B80",
":. c #627BA3",
">. c #617DA9",
",. c #4080BF",
"<. c #5580AA",
"1. c #5D81BA",
"2. c #72819A",
"3. c #6B80A3",
"4. c #6982AA",
"5. c #6786B5",
"6. c #6185BC",
"7. c #6588BE",
"8. c #6986B5",
"9. c #6E89B5",
"0. c #688ABE",
"q. c #7286A5",
"w. c #7788A5",
"e. c #7388AB",
"r. c #798AA6",
"t. c #7B8DAC",
"y. c #708AB4",
"u. c #708DBB",
"i. c #7D90AD",
"p. c #7491BF",
"a. c #7C92B4",
"s. c #6B8CC0",
"d. c #7492C4",
"f. c #7996C6",
"g. c #7B98C7",
"h. c #7E9AC8",
"j. c #808080",
"k. c #82868D",
"l. c #8B8B8B",
"z. c #838A94",
"x. c #898D95",
"c. c #8F9195",
"v. c #959595",
"b. c #959698",
"n. c gray62",
"m. c #848FA0",
"M. c #8490A2",
"N. c #8292AD",
"B. c #8A93A1",
"V. c #8596B2",
"C. c #8096B9",
"Z. c #859ABC",
"A. c #8B9BB4",
"S. c #899DBC",
"D. c #949BA7",
"F. c #939CAA",
"G. c #999FA9",
"H. c #8CA0BE",
"J. c #97A4B9",
"K. c #A2A2A3",
"L. c #A6AAAF",
"P. c #ACACAC",
"I. c #A5AFBE",
"U. c #A9ADB2",
"Y. c #ABB2BD",
"T. c #B3B3B3",
"R. c #B3B6BA",
"E. c #B7B9BD",
"W. c #BBBCBE",
"Q. c #839BC2",
"!. c #819DCA",
"~. c #86A0CC",
"^. c #8AA1C5",
"/. c #8BA4CD",
"(. c #95A7C6",
"). c #92A7C8",
"_. c #92A8CD",
"`. c #98ACCD",
"'. c #92AAD1",
"]. c #98AFD3",
"[. c #9CB1D5",
"{. c #A6B2C6",
"}. c #AEB6C2",
"|. c #A0B5D6",
" X c #A2B7D8",
".X c #A5B9D9",
"XX c #AABDDA",
"oX c #B7BDC6",
"OX c #B8BEC6",
"+X c #AEC0DC",
"@X c #BFC3C9",
"#X c #B7C3D6",
"$X c #B2C3DE",
"%X c #BBC5D5",
"&X c #BFC9DA",
"*X c #B6C6E0",
"=X c #BAC9E1",
"-X c #C3C3C3",
";X c #C1C4CA",
":X c #CACACB",
">X c #C4C9D1",
",X c #C3CCDC",
"<X c #CDD4DF",
"1X c #D2D2D2",
"2X c gray86",
"3X c #C1CEE3",
"4X c #C4D1E5",
"5X c #C8D4E7",
"6X c #C9D5E8",
"7X c #CFDAEB",
"8X c #D3DCEC",
"9X c #DCDEE2",
"0X c #D7E0EE",
"qX c #D9E1EE",
"wX c #DDE4F0",
"eX c #E3E3E3",
"rX c #E3E5E8",
"tX c #EBEBEB",
"yX c #EDEFF1",
"uX c #F3F3F4",
"iX c #F7F8FB",
"pX c #FEFEFE",
"aX c None",
/* pixels */
"O.O.@.1.6.@.6.7.7.0.0.s.s.s.d.f.d.f.h.h.h.!.!.~.~./././.'.'.'.'.].].[.|.|.|..X|. X[.[.].].'.'.'./././.~.~.!.!.!.g.g.f.d.d.d.s.s.s.s.6.s.6.6.6.1.1.O.1.",
"O.O.@.1.@.6.6.6.7.0.s.s.s.d.d.d.f.f.f.h.h.!.!.~.~././././.'.'.'.].[.[.[.|.|.|.|.].[.[.].].'.'.'./././.~.~.!.!.!.h.g.f.f.f.d.s.d.s.s.s.6.6.6.6.1.1.1.O.",
"O.O.@.1.1.6.6.6.7.0.s.s.s.s.d.d.d.f.f.h.h.!.!.~.~.~./.'.'.'.'.].].[.[.|.|.|..X|.]. X[.].'.'.'./.'././.~.~.~.!.h.h.g.f.f.f.d.d.s.s.s.s.7.6.6.6.1.1.1.O.",
"O.@.@.@.6.6.6.7.7.0.0.s.d.s.d.d.f.f.f.h.h.!.~.~.~./././.'.'.'.'.].].[.[.|.|..X|. X].].].].'.'.'./././.~.~.!.!.h.g.g.f.f.d.d.s.d.s.s.s.7.6.6.6.1.1.1.O.",
"O.O.@.1.1.6.6.6.s.0.0.s.s.d.d.d.d.f.g.h.!.!.!.~.~./././.'.'.'.].].].].[.|. X X|. X[.[.].'.'.'.'./././.~.~.!.!.h.g.g.f.d.d.d.d.s.s.s.s.6.s.6.6.6.O.O.1.",
"O.O.@.1.1.6.6.6.s.0.s.s.s.d.d.d.f.f.f.h.h.!.!.~.~././././.'.'.].].].|.|.|. X X|.].[.].].].'.'.'.'./././.~.~.!.!.h.g.f.f.f.s.d.s.s.s.6.s.6.6.1.1.1.1.O.",
"O.O.@.@.1.6.6.6.6.s.s.s.d.s.d.d.d.f.g.g.h.!.!.~.~././.'.'.'.'.'.].].|.[.|. X.X|. X[.].].'.'.'./././.~.~.~.!.!.!.h.g.f.d.f.d.d.s.s.s.s.7.6.6.1.1.1.O.O.",
"O.O.@.1.1.6.6.6.s.6.s.s.s.s.d.d.f.f.g.h.h.!.!.~.~./././.'.'.'.'.].[.].|.|. X|.|. X].].].'.].'.'.'././.~.~.!.!.!.h.g.f.f.d.d.d.s.s.s.7.s.6.6.6.1.1.O.1.",
"O.O.@.@.@.6.@.6.6.s.s.s.s.d.d.d.f.g.g.h.h.!.!.~./.!./.'.'./.'.].].[.[.[.|..X|.|.|.[.].].].'.'./.'././.~.~.~.~.h.g.g.f.d.d.d.d.s.s.s.6.s.1.6.6.1.1.1.O.",
"O.@.@.6.6.6.6.s.6.6.0.s.s.d.d.d.d.g.g.g.h.!.~.!./././././.'.'.].].].[.|.|.|..X|.[.[.[.].'.'.'.'././././.~.~.h.h.h.g.f.f.f.s.d.s.s.s.s.6.s.6.6.1.1.@.@.",
"O.O.@.@.@.6.6.6.6.0.0.s.s.d.s.d.d.g.g.h.h.!.~.~./.~././.'.'.'.].].].[.[.|..X|.|.^.D 0 4 M Z.'.'.'.~./.~.~.~.h.h.h.g.f.d.f.d.d.s.s.s.s.6.1.1.6.1.1.O.O.",
"O.O.@.@.@.6.6.6.s.6.s.s.s.s.d.f.d.f.g.h.h.!.!.~.!./././.'.'.'.'.].].[.|.|.|..XN.z t 2 # . X *.'._././.~.~.h.~.h.h.g.f.f.d.d.d.s.s.s.s.s.s.1.6.1.1.1.O.",
"O.O.@.@.1.6.s.6.6.s.s.s.s.s.d.d.f.f.g.g.h.!.!.~./././././.'.'.].].].|.[.|..X`.J U v.:X-XL X + C././.~.~.~.h.h.h.h.f.f.f.d.d.d.s.s.s.s.6.6.6.6.1.1.O.O.",
"O.O.@.@.@.6.1.s.s.s.s.s.d.d.d.d.d.f.g.h.h.!.!.~.~./././.'.'.'.].].].].|.|.|.V.z.T.iXpXpXpXL X B './././.~.~.~.h.h.f.f.f.d.d.d.s.s.s.s.6.6.6.6.1.1.O.@.",
"O.@.1.@.1.6.1.1.1.s.s.s.s.d.d.d.f.f.g.h.h.!.~.~./././././.'.'.].].[.|.[.|..XZ.U.tXpXpXpXpXW.: 0 './.~.~.~.~.h.h.h.f.f.d.d.d.d.s.s.6.s.s.s.1.6.1.1.O.O.",
"O.@.@.1.1.@.s.s.1.s.s.s.s.s.d.d.d.f.g.h.h.!.!.!.~././././.'.'.].].].].|.|.|.(.;XyXpXpXpXpX:X8 s /./././.~.~.h.h.h.h.f.f.d.d.d.s.s.s.s.6.s.6.1.@.1.1.@.",
"O.O.@.1.6.6.6.6.7.0.0.s.s.s.d.d.f.f.g.h.!.!.!.!.~./././.'.'.'.].'.[.[.|. X X|.,XtXpXpXpXpXb.s K './.~./.~.h.h.h.h.h.f.f.d.d.s.d.s.s.s.6.6.6.6.1.1.1.O.",
"O.O.@.@.1.6.@.s.7.0.s.s.s.d.d.d.d.f.g.g.g.!.!.!.~.~././.'.'.'.'.[.[.[.[.|.[. X=XpXtXtXrXT.;.v ~./././.~./.~.~.h.h.h.f.d.d.d.d.s.s.s.s.6.6.6.6.1.1.1.O.",
"O.O.@.1.@.6.6.s.7.0.s.s.d.s.d.d.f.f.f.h.!.!./.!.~././././.'.'.].'.[.[.|.|. X=XpX=X&X>XR.B._ a.'.'././.~.~.h.h.h.h.h.f.f.d.d.d.s.s.s.s.s.s.6.1.1.1.1.O.",
"O.O.@.@.6.@.6.6.6.0.s.s.s.d.d.d.f.f.g.g.h.!.!./././././.'.'.'.].].[.[.[.|.4XpX=X[.[._.H.Z./.'.'./././.~.~./.h.h.h.f.f.d.d.d.d.s.s.s.6.6.6.6.6.1.1.1.O.",
"O.O.@.6.@.6.6.6.6.0.s.s.s.s.d.d.f.f.f.h.h.!.!.~./././.'.'.'.'.].].[.[.[.=XpX=X|.[.[.[.[.'.'.'.'.'././.~.~.h.h.h.h.f.f.f.d.d.d.s.s.s.6.s.6.6.6.1.1.O.1.",
"O.O.@.@.6.6.6.+.C h C { 0.d.d.d.d.f.f.g.h.!.!.~.!././././.N.Z M H 2.).=XpX=X X|.[.[.[.[.].'.'././././.Q.3./ Z F 9.f.f.f.d.d.d.s.s.s.s.6.s.6.6.1.1.O.O.",
"O.O.@.@.1.6.^ = 4 v I #.( 8.d.d.f.f.h.h.!.!.~.~.!./././.$.% 8 m T 2.I.pX=X[..X[.[.[.].].].'.'.'.'./.^.e.F.c.R c 3 [ f.f.d.d.d.s.s.s.s.6.6.6.6.1.1.1.O.",
"O.O.@.@.6...o ; P -X:XT.G.X.d.d.f.f.f.h.h.!.!.!.~././.a.X , c.9XtX2XiX{.[. X X X[.[.[.].].'.'./././.^.:X2XuXeXv.i * 9.d.d.d.d.s.s.s.s.s.6.6.6.1.1.O.O.",
"O.O.@.@.6.u . L pXpXpXpX:XA.u.d.d.f.f.h.h.!.!.~.~././.M . P pXpXpXpX2X}.`. X X X[.[.[.].].'.'.'._./.,XeXpXpXpXpXR & V f.d.d.s.s.s.7.s.s.1.s.6.1.@.@.O.",
"O.O.@.@.1.- . OXpXpXpXpXeXoX.X#X$X$X$X*X*X=X=X=X=X=X=Xx.T 2XpXpXpXpXiX2X,X7X6X6X5X5X4X4X5X=X4X=X=X3XyXpXpXpXpXpX:X: q d.d.d.d.s.s.s.s.1.6.@.1.1.1.1.@.",
"O.O.@.6.6.= . -XpXpXpXpXtX;X,X7X7X8X7X8X8X8X8X0X8X8X0XoXP.eXpXpXpXpXuXtXqXwXwXwXwXwXwXwXwXwX0X0XqXqXuXiXpXpXpXpX:X& p f.f.d.d.s.s.s.s.s.6.s.@.1.@.1.@.",
"O.@.@.@.@.w . E pXpXpXpX1XJ.0.d.f.f.f.h.h.!.!.~./.!./.B . m pXpXpXpXeXY.`. X X X[.[.].].].'.'.'././.%XeXpXpXpXiXL & C f.d.d.d.s.s.s.s.6.s.1.1.1.1.1.O.",
"O.O.@.@.6.' . , v.eXtX-XL.:.d.d.d.f.f.h.h.!.!.~./././.Q.$ , P W.:X@XiX#X|..X.X|.[.[.[.].].'.'./././.Q.;X:X2X:XE t - p.f.d.d.s.s.s.s.s.6.7.6.6.6.1.1.O.",
"O.O.@.@.@.6.j $ 7 m R -.( 5.d.d.f.f.f.h.h.!.!.~.!./././.*.< t n Y -.F.iX5X[. X|.[.[.[.[.'.'.'.'._./.~.e.x.2.U s p 4.f.d.d.d.d.d.s.s.6.s.6.7.1.1.1.O.O.",
"O.O.@.6.6.6.6.' d u g ( 5.s.d.d.d.f.f.h.!.!.!.~././././.'.!.$.) $.t.`.$XpX6X X|.[.[.[.].].'.'./.'././.Q.e.%.( [ p.g.f.f.d.d.s.s.s.s.s.6.6.6.1.1.1.@.O.",
"O.O.@.@.@.6.6.6.s.6.0.s.s.d.d.d.f.f.f.h.h.!.!.~.~./././.'.'.].].[.[.[.[.$XiX6X|.[.[.].[.].'.'.'././././.~.~.~.h.h.g.f.f.d.d.d.d.s.s.s.s.6.6.1.1.1.1.O.",
"O.O.O.1.1.6.6.7.7.s.s.s.s.d.d.d.d.f.f.h.h.!.!.!./././.'.'./.'.'.].[.[.[.|.$XiX6XS.r.w.t.H._.'.'././././.~.h.h.h.h.g.f.d.d.d.8.` V f g o.6.6.1.1.1.1.O.",
"O.O.@.1.1.6.6.6.7.7.7.s.s.s.d.d.f.f.h.h.h.!.~.~.~.!./././.'.].].].].[.|.|.|.$X-X=.c.P.T.Y.V.^./.'././.~.~.~.~.!.h.g.f.f.d.0.e.G.b.R v 1 ~ 6.6.1.1.1.O.",
"O.O.@.1.6.6.6.7.7.7.s.s.s.d.d.d.d.f.f.h.h.!.~.~.~./././.'.'.'.].].[.[.[.|. XA.S E :XiXuX2XE.t././././.~.~.~.!.h.h.g.f.f.f.Q.1XeXiXtXn.8 * o.6.6.1.1.O.",
"O.O.O.1.1.1.6.6.7.7.7.s.s.d.d.d.f.f.f.h.h.!.!.!.~././.'./.'.'.'.].].[.[.|..XJ c P.pXpXpXpX:XF.a.'././.~.~.h.!.h.h.f.f.f.d.<XtXpXpXpXpXT $ j 1.1.1.1.O.",
"O.O.@.1.1.6.6.6.7.7.s.s.s.d.d.d.d.f.h.h.h.!.!.~.~.!./.'.'.'.'.].].[.[.[.[. Xp k 2XpXpXpXpXeXK.R.wXwXwXwXwXwXwX0XqXqXqXqXqXtXpXpXpXpXpXP.& w 7.1.1.O.@.",
"O.O.@.1.1.6.6.6.7.7.s.s.s.d.d.d.f.f.f.h.h.!.~.~.~././././.'.'.].].[.[.[. X Xe 5 -XpXpXpXpX1X2.M.$X$X$X$X+X+X+X+XXXXX.X X XeXiXpXpXpXpXn.& d 1.1.1.O.O.",
"O.O.@.1.1.6.6.7.7.s.s.s.d.s.d.d.d.f.f.h.h.!.!.!.~./././.'.'.'.].].[.[. X X XD @ L pXpXpXuXl.G w./././.~.~.~.!.h.f.g.f.f.f.#XeXpXpXpXuXb $ ~ 1.1.1.O.O.",
"O.O.@.@.1.6.6.6.7.7.7.s.s.s.d.d.f.f.f.h.!.!.!.~.~././.'./.'.'.].'.[.[.[.[. X(.@ O l n.K.L c f ^._./././.~.h.!.h.h.g.f.f.d.u.OX-X1XW.P 4 9 1.7.1.1.1.O.",
"O.O.@.1.1.1.7.7.7.s.s.s.d.s.d.d.f.f.g.h.h.!.!.!./.!./.'./.'.'.].[.'.[.[.[. X.XA.* . # ; > p Q.'._./././.~.~.~.h.h.f.f.f.d.0.:.2.-.G r w o.6.1.1.@.@.@.",
"O.O.@.1.1.6.1.7.7.7.7.s.s.d.d.d.d.f.f.h.!.!.!.!./.!./.'.'.'.'.'.].[.[.[.|. X X|.].&.N N &./.'.'./././.~.~.~.h.h.h.g.f.f.d.d.0.>.` ~ ] 7.7.6.7.1.@.@.@.",
"O.O.@.@.1.1.7.7.7.7.0.s.s.d.d.d.f.f.h.h.!.!.!.~./././././.'.'.].].[.[. X|. X X|.|.[.].].].'.'.'./././.~.~.~.h.h.h.f.f.f.d.d.d.d.s.s.s.s.7.6.1.1.1.@.@.",
"O.O.@.@.6.1.6.6.7.7.s.s.d.s.d.d.d.f.f.h.!.!.!.~.!./././.'.'.'.'.].[.[.[.|. X X|.[.[.].].'.'.'./._./.~.~.~.~.h.!.h.f.f.f.d.d.d.0.s.s.6.6.7.1.6.1.1.@.@.",
"O.@.@.@.1.6.6.6.7.7.s.s.s.d.d.d.d.f.d.!.!.!.!.!./././.'./.'.'.].].[.[.|.|. X.X|.|.[.'.[.'.'.'.'.'./././.~.~.!.h.g.f.f.f.d.d.d.0.s.s.6.s.6.6.1.@.1.@.@.",
"O.@.@.6.1.6.6.7.7.0.s.s.s.d.d.d.f.f.g.h.h.!.!.~.!./././.'.'.'.].'.].[.[.|. X X|.[.[.[.[.].'.'._./././.~.~.h.!.h.g.f.f.f.d.d.d.d.s.s.s.6.s.6.6.@.@.@.@.",
"O.O.@.@.@.6.6.6.7.7.7.s.s.d.d.d.d.g.f.h.!.!.!.~./././././.'.'.].[.].[.[.|. X X|.|.[.[.[.'.'.'.'.'././.~.~.~.h.h.h.f.f.f.d.d.d.0.s.s.s.6.6.6.s.1.@.@.@.",
"O.O.@.@.6.6.6.7.7.7.s.s.s.d.d.d.d.g.d.!.!.!.!.~.!./././.'.'.'.'.].[.[.[.|. X X|.[.[.[.'.[.'.'././././.~./.~.h.h.h.h.f.f.d.d.s.d.s.s.s.s.6.6.6.1.1.@.@.",
"O.O.@.@.6.6.6.6.6.s.s.s.s.s.d.f.d.f.g.h.!.!.!.~./.~./.'.'.'.'.].].].[. X|. X X|.[.[.[.].'.].'././././.~.~.~.!.h.h.f.f.f.d.d.s.s.s.s.s.1.s.@.@.6.@.@.@.",
"O.O.@.@.@.6.6.s.@.s.s.s.s.s.d.d.f.f.g.h.g.!.!.~.~././././.'.'.'.].[.[.[.|. X X|.[.[.].].].'.'.'.'././.~.~.!.!.h.h.f.f.f.d.d.d.d.s.s.6.s.s.6.s.1.@.@.@.",
"O.@.@.6.@.6.6.6.s.@.s.s.s.d.d.d.d.f.f.h.!.!.!.~.~.~./.'._.'.'.].].].[.[.[..X X X[.[.].].'.'.'./.'././.~.~.~.!.h.h.f.f.f.d.d.s.s.s.s.s.1.6.6.@.1.@.@.@.",
"O.@.@.@.@.6.6.6.s.s.s.s.s.s.d.d.f.f.g.g.g.!.!.!.~.~././.'.'.'.'.].[.[.[.|. X X|.[.[.[.].].].'.'./././.~./.h.!.!.h.f.f.f.d.d.d.d.s.s.s.s.6.6.1.1.@.@.@.",
"O.O.@.@.@.@.@.s.s.0.s.s.d.s.d.d.d.f.f.h.h.!.!.~./.~././.'.'.'.].].].[.|.[. X.X|.[.[.[.[.[.'.'././././.~.~.~.!.h.h.g.f.d.d.d.s.s.s.s.0.s.7.6.6.1.1.@.O.",
"O.O.@.@.@.s.s.@.6.0.0.s.s.d.d.d.f.f.g.h.!.!.!.~.~././.'./.'.'.].].].[.[. X X X X X[.[.].'.'.'.'.'././.~.~.!.!.h.h.g.f.f.d.d.d.d.s.0.0.s.6.6.1.1.1.@.O.",
"O.O.+.@.@.6.6.s.7.s.0.s.s.d.d.d.f.f.f.h.h.!.!.~.~./././.'.'.'.'.].].[.|.[. X X X[.[.].].'.'.'.'./././.~.~.!.!.!.g.g.f.f.f.d.s.s.0.s.s.s.7.6.6.1.1.@.@.",
"aX} } aXo...,.aXaXaXaXaXaXaXo.}  .| aXaXaXaXaXaXaXaXaXaXaX . . .| aXaXaXaXaXaXaXaXaXm m m m aXaXaXaXaXaXaXaXm m aXaXaXm   aXaXaXaXaXaXaXm m b aXm m aX",
"aX .| |  . .aXaXaXaXaXaXaXaX|  . . . . .aXaXaXaXaXaXaXaXaX .| |  .aXaXaXaXaXaXaXaXaXm m m m aXaXaXaXaXaXaXaXb m aXaXm m aXaXaXaXaXaXaXaXm m m aXm m aX",
"aX .| |  .aXaXaXaXaXaXaXaXaX.. .aXaX . .aXaXaXaXaXaXaXaXaX .aXaXaXaXaXaXaXaXaXaXaXE m m aXaXaXaXaXaXaXaXaXaXaXm m aXm m aXaXaXaXaXaXaXaXm m m m m m aX",
"aX . .} aXaXaXaXaXaXaXaXaXaX..} aXaXW  .aXaXaXaXaXaXaXaXaX . . . .aXaXaXaXaXaXaXaXaXm m m m aXaXaXaXaXaXaXaXaXm m   m l aXaXaXaXaXaXaXaXm m m m m m aX",
"aX . . . .aXaXaXaXaXaXaXaXaX|  .aXaX . .aXaXaXaXaXaXaXaXaX .aXaXaXaXaXaXaXaXaXaXaXaXaXaXm m m aXaXaXaXaXaXaXaXb m m m aXaXaXaXaXaXaXaXaXm m b m m m aX",
"aX .| }  . .aXaXaXaXaXaXaXaX.. . .} |  .aXaXaXaXaXaXaXaXaX}  . . .aXaXaXaXaXaXaXaXk m l b m l aXaXaXaXaXaXaXaXaXm m m aXaXaXaXaXaXaXaXaXm m aXm m m aX",
"aX . .aX}  .} aXaXaXaXaXaXaX.. . .| } aXaXaXaXaXaXaXaXaXaX|  . . .aXaXaXaXaXaXaXaXE m m m m aXaXaXaXaXaXaXaXaXaXm m aXaXaXaXaXaXaXaXaXaXm m aXaXm m aX",
"aXaXaXaXaXaXaXaXaXaXaXaXaXaXaXaXaXaXaXaXaXaXaXaXaXaXaXaXaXaXaXaXaXaXaXaXaXaXaXaXaXaXaXaXaXaXaXaXaXaXaXaXaXaXaXaXaXaXaXaXaXaXaXaXaXaXaXaXaXaXaXaXaXaXaX",
"g.!.h.!.!.g.!.!.h.!.h.!.h.!.h.!.!.h.!.!.h.!.!.h.!.!.h.!.!.!.h.!.h.!.!.h.!.!.h.!.!.h.!.!.h.!.!.h.!.!.h.!.!.h.!.!.g.!.!.h.!.!.h.!.h.Q.!.!.g.!.!.h.!.h.!."
};
