/* XPM */
static char *kdesvn_logo_klein[] = {
/* columns rows colors chars-per-pixel */
"64 55 49 1",
"  c #7D99C7",
". c #7E9BC8",
"X c #9E9E9E",
"o c #A2A2A2",
"O c #ADADAD",
"+ c #B5B5B5",
"@ c #B8B7B7",
"# c #BBBBBB",
"$ c #809CC9",
"% c #86A1CB",
"& c #8BA4CD",
"* c #8FA8CF",
"= c #90A8CF",
"- c #94ABD1",
"; c #99AFD3",
": c #9DB2D5",
"> c #A1B6D7",
", c #A3B7D8",
"< c #A5B9D8",
"1 c #AABDDB",
"2 c #AEC0DC",
"3 c #B2C3DE",
"4 c #B7C6E0",
"5 c #B8C7E0",
"6 c #BCCAE2",
"7 c #C3C3C3",
"8 c #CBCBCB",
"9 c #D2D2D2",
"0 c #DCDCDC",
"q c #C0CEE4",
"w c #C5D2E6",
"e c #C8D4E7",
"r c #CAD6E8",
"t c #CED9EA",
"y c #D2DCEB",
"u c #D9E2EF",
"i c #DEE5F0",
"p c #E4E4E4",
"a c #EBEBEC",
"s c #E0E7F2",
"d c #E5EAF3",
"f c #E9EEF5",
"g c #ECF0F7",
"h c #EFF2F8",
"j c #F4F5F5",
"k c #F2F5F9",
"l c #F6F8FB",
"z c #FEFEFE",
"x c None",
/* pixels */
"4.$$$$$$$$$$$$$.$$$$$$$.$$$$$$$.$$$$$$.$$$$$$$$$$$$$$$$$$$$$$$$$",
"4.$$$$$.$$$$$$$$.$$$$$$$$$$$$$$$$$$$$$$$$$$$.$$$$$$$$$$$$$$$$$$$",
"4.$$$$$$$$$$$$$$$$$$$$$$$$$$$$$$$$$$$$$$$$$$$$$$$$.$$$.$$.$$$$$$",
"4.$$$$$$$$$$$$$$$$$$$$$$$$$$$$$$$$$$$$$$$$$$$$$$$$$$$$$$$$$$$.$$",
"4.$$$$$$$$$$$$$$$$$$$$$$$$$$$$$$$$$$$$$$$$$.$$$$$$$$$$$$$$$$$$$$",
"4.$$$$$$$$$$$$$$$$$$$$$$$$$$$$$$$$$$$$$$$$$$$$$$$$.$$$$$$$$$$$$$",
"4$$$$$.$$$$$$$$$$$$$$$$$$$$$$$$$$.$$$$$.$$$$$$$$$$$$$$$$$$$$$$$$",
"4.$$$$$$$$$$$$.$$$.$$$$$.$$$$$$.$$$$$$$$$$$$$$$$$$$$$$$$$$$.$$$$",
"4.$$$$$$$.$$$$$$$$$$$$$$$$$.$$$$$$$$.$$$$$$$$$$$$$$$$.$$$$$$$$$$",
"4.$$$.$$$$$$$$.$$$$$$$.$$$$$$$$$$$$$&$..$$$$$$$$$$$$$$$$$$$$$$$$",
"4.$$$$$$$$$$$$$$$.$$$$$$$$$$$$$$$.;tfi1$$$$$$$$$$.$$$$$$$$$$$$$$",
"4.$$$$$$$$$$$$$$$$$$$$$$$$$$$$$$.-dzzzl1.$$$$$$$$$$$$$$$.$$$$$$.",
"4.$$$$$$$$$$$$$$$$$$$$$$$$$$$$$$.4zzzzzi$$$$$$$$$$$$$$$$$$$$$$$$",
"4.$$$$$$$$$$$$$$$$$$$$$$$$$$$$$$$ezzzzzd&$$$$$$$$$$$$$$$$$$$$$$$",
"4.$$$$$$$$$$$.$$$$$.$$$$$$$$$$$$$3zzzzzy$$$$$$$$$$$$$$$$$$$$$$$$",
"4.$$$$.$$$$$$$$$$$$$$$$$$$.$$$$$.<kzzzg:$$$$$$$$$$$$$.$$$$$$.$$$",
"4.$$$$$$$$$.$$$$$$$$$$$$$$$$$$$.:i24tw:$$$$$$$$$$$$$$$$$$$$$$$$$",
"4.$$$$$$$$$$$$$$$$$$$$$$$$$$$$$:s1.....$$$$$$$$$$.$$$$$$$$$$$$$$",
"4$$$$$.....$$$$$$$$$$$$$$$....:s1$$$.$$$$$$$....$$$$$$.$$.$$$$$$",
"4.$$$$$<64*.$$$$.$$$$$.$$&3q<<i1.$$$$$$$$$..:64:$$$$$$$$$$$$$$.$",
"4.$$$$ezzzd;$$$.$$$.$$$$-szzlk2.$$$$$$$$.$$3kzzk1.$$$$$$$$$$$$$$",
"4.$$$1lzzzzy%$$$$$$$$$$$tzzzzz1.$$$$$$$$$$-gzzzzf-.$$$$$$$$$$$$$",
"4.$$.wzzzzzlyyyyyyyyyyyukzzzzzfyyyyyyyytyyizzzzzl:..$$$$$$$$$$$$",
"4....6zzzzzf1<<<<1<,<<<1fzzzzzt,<<<1<<<<<,4lzzzzl:..$$$$$$$.$$$$",
"4.$$.-fzzzz4............3zzzzl: . .. . ...$yzzzzy$.$$.$$$$.$$$$$",
"4.$$$$:ikf6$.$...$..$...$4fkiyy&.$$$$$$$.$$-tkht-.$$$$$$$$$$$$$$",
"4.$$$..%-&$$$$$$$$$$$$$$..&-%%et&$$$$$$$$$$.$-&$..$$$$.$$$$$$$$$",
"4.$$$$$$.$$$$$$$$.$$$$$$$...$$%et%....$.$$$$$..$$$$$$$...$$$$$$$",
"4.$$$$$$.$$$$$$$$$$$$$$$$$$$$$.%et&&;=$.$$$$.$$$$$$$.$-;&.$$$.$$",
"4.$$$$$$$$$$.$$$$$$$$.$$$$$$$$$.%eudlhw$..$$$$$$$$$.%whld<..$$$$",
"4.$$$$$.$$$$$$$$$$$$$$$$$$$$$$$$.:lzzzz3............4zzzzh;.$$$$",
"4$$$$$$$$$$$$$$$$$$$$$$$$$.$$$$$.wzzzzzf312121212113hzzzzz6.$$$$",
"4.$$$$$$$$$$$.$$$$$$$$$$$$$$$$$$.wzzzzzkttetettettetlzzzzzw..$$$",
"4.$$.$$$$$$$$$$$$$$$$$$$$$$$$$$$.1zzzzze$$$$..$$..$$tzzzzl<$.$$$",
"4.$$$$$$$$$$$$$$$$$$$$$$$$$$$$$$.$wlzzi-.$.$$$$.$$$$-izzlw$$$$$$",
"4.$$$$$$.$$$$$$$$$$$.$$$$$$$.$$$$.$,41%.$$$$$$$$$$$$.&14:$$$$$$$",
"4.$$$$$$$$$$$$$$$$.$.$$$$$$..$$$$$$....$$$$$$$$$$$$$$.....$$$$$$",
"4.$$$$$$$$$$$$$$$$$$$$$$$$$$$$$$$$$..$$$$$$$$$$$$$$$$$.$$$$$$$.$",
"4.$$$$$$$$$$$$.$$$$$$$$$$$$$$$$$.$$$$$$$$$$$$$$$$$$$$$$$$$$$$$$$",
"4.$$.$$$$$$$$$$$$$$$$$$$$$$$$$$$$$$$$$$$$$$$.$$$$$$$$$$$$$$$$$$$",
"4.$$$$$$$$.$$$$$$$$$$$$$$$$$$$$$$$$$$$$$$$$$$$$$$$$$$$.$$$$$$$$$",
"4.$$$$$$$$$$$$$$$$$$$$$$$$$$$$$$$$$$$$$$$$$$$.$$$$$$$$$$$$$$$$$$",
"4.$$$.$$$$$$$$$$$$$$$.$$$$$$.$$$$$$$$$$$$$$$$$$$.$$$$$$$$.$$$.$$",
"4$$$$$$$$$$.$$$$$$.$$$$$$$$.$$$$$$$$$$$$.$$$$$$$$$$$$$$.$$$$$$$$",
"4.$$$..$.$$.$.$$..$$$..$..$...$$$$$$$$$$$$$$$$..$..$.$$...$.$..$",
"4..........................................$....................",
"t121211112111221111221112222111211111221111111221211122111221211",
"zskluhxxxxxxfyyizxxxxxxxkyyykxxxxxxzp00lxxxxxxaaxxpjxxxxxxapzjpz",
"z<y3<kxxxxxxq<q:4zxxxxxxu-eehxxxxxxaO98axxxxxx0@zl+axxxxxx8Xpp@z",
"z<-1kxxxxxxx66xf:gxxxxxxu:yizxxxxxx0O0jxxxxxxxj+a0@lxxxxxx8o#0@z",
"z<%yxxxxxxxxq6xl:dxxxxxxu*13lxxxxxxz9+Opxxxxxxx7879xxxxxxx87@#@z",
"z14<uxxxxxxx66xy:kxxxxxxu<llzxxxxxxzjj#8xxxxxxxpOOaxxxxxxx88pX+z",
"l3ii1dxxxxxxe:3,txxxxxxxi:33fxxxxxxa@@+pxxxxxxxl#7xxxxxxxx99z#7x",
"zklzkkzzzlzzkhfklzzzlzzzlhfhkzzzzlzjayjlzzlzlzzzjllzlzlzzzjjljjz",
"4<111<1<<1<1111<<1111<1<<1<11<1<<11<1111<11<<11111<111<1<<<111<3"
};
