/* XPM */
static char *kdesvn_logo_klein[] = {
/* columns rows colors chars-per-pixel */
"64 64 145 2",
"   c black",
".  c #010000",
"X  c #020100",
"o  c #030100",
"O  c #040100",
"+  c #040101",
"@  c #050101",
"#  c #060201",
"$  c #090201",
"%  c #0B0301",
"&  c #0C0302",
"*  c #100502",
"=  c #120502",
"-  c #130502",
";  c #150603",
":  c #170703",
">  c #180703",
",  c #1A0703",
"<  c #1D0804",
"1  c #1C222B",
"2  c #200904",
"3  c #220A05",
"4  c #230A05",
"5  c #240A05",
"6  c #270B05",
"7  c #290C06",
"8  c #2A0D07",
"9  c #2B0C06",
"0  c #2D0D06",
"q  c #350F07",
"w  c #360F07",
"e  c #371007",
"r  c #381008",
"t  c #391008",
"y  c #3A1108",
"u  c #3B1108",
"i  c #3C1108",
"p  c #3D1108",
"a  c #3F1208",
"s  c #411209",
"d  c #411309",
"f  c #431309",
"g  c #451309",
"h  c #451409",
"j  c #461409",
"k  c #46140A",
"l  c #4A150A",
"z  c #50170B",
"x  c #54180B",
"c  c #55180C",
"v  c #56180C",
"b  c #57190C",
"n  c #5B1A0C",
"m  c #5C1A0D",
"M  c #5E1B0D",
"N  c #4B231B",
"B  c #601B0D",
"V  c #621C0D",
"C  c #641C0E",
"Z  c #661D0E",
"A  c #671D0E",
"S  c #681E0E",
"D  c #691E0E",
"F  c #6C1F0F",
"G  c #6D1F0F",
"H  c #6E1F0F",
"J  c #6E200F",
"K  c #70200F",
"L  c #762110",
"P  c #762210",
"I  c #792210",
"U  c #7A2210",
"Y  c #7A2311",
"T  c #7E2411",
"R  c #556885",
"E  c #802411",
"W  c #802511",
"Q  c #812512",
"!  c #822512",
"~  c #832512",
"^  c #852612",
"/  c #862612",
"(  c #872612",
")  c #8A2713",
"_  c #8C2813",
"`  c #8E2813",
"'  c #8E2913",
"]  c #8F2913",
"[  c #8F2914",
"{  c #902813",
"}  c #902914",
"|  c #912914",
" . c #932A14",
".. c #942A14",
"X. c #952A14",
"o. c #962A14",
"O. c #962B14",
"+. c #972B15",
"@. c #982B15",
"#. c #9B2C15",
"$. c #9C2C15",
"%. c #9C2D15",
"&. c #9E2D16",
"*. c #9F2D16",
"=. c #A22E16",
"-. c #A32E16",
";. c #A32F16",
":. c #A42F16",
">. c #A62F17",
",. c #A63017",
"<. c #A73017",
"1. c #A83017",
"2. c #A93017",
"3. c #AA3017",
"4. c #AB3117",
"5. c #AF3217",
"6. c #AC3118",
"7. c #AD3118",
"8. c #AF3218",
"9. c #B03218",
"0. c #B13218",
"q. c #B13318",
"w. c #B23318",
"e. c #B33318",
"r. c #B33319",
"t. c #B43318",
"y. c #B43419",
"u. c #B53419",
"i. c #B63419",
"p. c #B73419",
"a. c #B83418",
"s. c #B83419",
"d. c #B83519",
"f. c #B93519",
"g. c #BA3519",
"h. c #BB3519",
"j. c #BA351A",
"k. c #BB351A",
"l. c #BB361A",
"z. c #BC361A",
"x. c #BD361A",
"c. c #809CC8",
"v. c #AEC0DC",
"b. c gray100",
"n. c None",
/* pixels */
"n.n.n.n.n.n.n.n.n.n.n.n.n.n.n.n.n.n.n.n.n.n.n.n.n.n.n.n.n.n.n.n.n.n.n.n.n.n.n.n.n.n.n.n.n.n.n.n.n.n.n.n.n.n.n.n.n.n.n.n.n.n.n.n.",
"n.n.n.n.n.n.n.n.n.n.n.n.n.n.n.n.n.n.n.n.n.n.n.n.n.n.n.n.n.n.n.n.n.n.n.n.n.n.n.n.n.n.n.n.n.n.n.n.n.n.n.n.n.n.n.n.n.n.n.n.n.n.n.n.",
"n.n.n.n.n.n.n.n.n.n.n.n.n.n.n.n.n.n.n.n.n.n.n.n.n.n.n.n.n.n.n.n.n.n.n.n.n.n.n.n.n.n.n.n.n.n.n.n.n.n.n.n.n.n.n.n.n.n.n.n.n.n.n.n.",
"n.n.n.n.n.n.n.n.n.n.n.n.n.n.n.n.n.n.n.n.n.n.n.n.n.n.n.n.n.n.n.n.n.n.n.n.n.n.n.n.n.n.n.n.n.n.n.n.n.n.n.n.n.n.n.n.n.n.n.n.n.n.n.n.",
"n.n.n.n.n.n.n.n.n.n.n.n.n.n.n.n.n.n.n.    n.n.n.n.n.n.n.n.n.n.n.n.n.n.n.n.n.n.n.n.n.n.n.n.n.n.n.n.n.n.    n.n.n.n.n.n.n.n.n.n.n.",
"n.n.n.n.n.n.n.n.n.n.n.n.n.n.n.n.n.            n.n.n.n.      n.n.n.n.n.n.n.n.n.n.n.n.n.n.n.n.n.              n.n.n.n.n.n.n.n.n.n.",
"n.n.n.n.n.n.n.n.n.n.n.n.n.n.n.n.n.          n.n.n.n.            n.n.n.n.n.n.n.n.n.n.n.                      n.n.n.n.n.n.n.n.n.n.",
"n.n.n.n.n.      n.n.n.n.n.n.n.n.            n.n.n.                  n.n.n.n.n.n.n.n.                      n.n.n.n.n.n.n.n.n.n.n.",
"n.n.n.n.          n.n.n.n.n.n.            n.n.n.                      n.n.n.n.n.n.n.                  n.n.n.n.n.n.n.n.n.n.n.n.n.",
"n.n.n.n.n.        n.n.n.n.n.            n.n.n.                          n.n.n.n.n.          n.n.n.n.n.n.n.n.n.n.n.n.n.n.n.n.n.n.",
"n.n.n.n.n.        n.n.n.n.n.          n.n.n.n.                          n.n.n.n.n.          n.n.n.n.n.n.n.n.n.n.n.n.n.n.n.n.n.n.",
"n.n.n.n.          n.n.n.n.          n.n.n.n.                                n.n.n.          n.n.n.n.n.n.n.n.n.n.n.n.n.n.n.n.n.n.",
"n.n.n.n.n.        n.n.n.          n.n.n.n.n.              n.n.              n.n.n.          n.n.n.n.  n.n.n.n.n.n.n.n.n.n.n.n.n.",
"n.n.n.n.          n.n.            n.n.n.n.n.              n.n.                n.n.          n.n.n.        n.n.n.n.n.n.n.n.n.n.n.",
"n.n.n.n.          n.            n.n.n.n.n.n.            n.n.n.                n.n.                        n.n.n.n.n.n.n.n.n.n.n.",
"n.n.n.n.        n.            n.n.n.n.n.n.n.              n.n.n.              n.n.                        n.n.n.n.n.n.n.n.n.n.n.",
"n.n.n.n.                    n.n.n.n.n.n.n.n.            n.n.n.n.n.            n.n.                      n.n.n.n.n.n.n.n.n.n.n.n.",
"n.n.n.n.                    n.n.n.n.n.n.n.              n.n.n.n.n.            n.                  n.n.n.n.n.n.n.n.n.n.n.n.n.n.n.",
"n.n.n.n.                    n.n.n.n.n.n.n.n.            n.n.n.n.n.            n.              n.n.n.n.n.n.n.n.n.n.n.n.n.n.n.n.n.",
"n.n.n.n.        n.              n.n.n.n.n.n.            n.n.n.n.n.            n.n.          n.n.n.n.n.n.n.n.n.n.n.n.n.n.n.n.n.n.",
"n.n.n.n.        n.n.n.            n.n.n.n.n.            n.n.n.n.n.            n.n.          n.n.n.n.n.n.n.n.n.n.n.n.n.n.n.n.n.n.",
"n.n.n.n.        n.n.n.              n.n.n.n.n.            n.n.n.n.n.          n.n.          n.n.n.n.      n.n.n.n.n.n.n.n.n.n.n.",
"n.n.n.n.n.n.n.n.n.n.n.n.n.            n.n.n.n.            n.n.n.n.n.        n.n.n.          n.                n.n.n.n.n.n.n.n.n.",
"n.n.n.n.n.n.n.n.n.n.n.n.n.n.            n.n.n.            n.n.n.n.          n.n.                              n.n.n.n.n.n.n.n.n.",
"n.n.n.n.n.n.n.n.n.n.n.n.n.n.n.            n.n.            n.n.n.n.          n.n.n.                            n.n.n.n.n.n.n.n.n.",
"n.n.n.n.n.n.n.n.n.n.n.n.n.n.n.            n.n.n.          n.n.n.          n.n.n.                            n.n.n.n.n.n.n.n.n.n.",
"n.n.n.n.n.n.n.n.n.                      n.n.n.n.                          n.n.n.n.                n.n.n.n.n.n.n.n.n.n.n.n.n.n.n.",
"n.n.n.n.n.n.h.h.x.x.x.x.x.h.h.r.W       n.n.n.n.                        n.n.n.n.n.      n.n.n.n.n.n.n.n.n.n.n.n.n.n.n.n.n.n.n.n.",
"n.n.n.n.n.x.x.x.x.x.x.x.x.x.x.x.x.4.        n.n.                      n.n.n.n.n.n.n.n.n.n.n.n.n.n.n.n.n.n.n.n.n.n.n.n.n.n.n.n.n.",
"n.n.n.n.x.x.x.x.x.x.x.x.x.x.x.x.x.4.        n.n.                  n.n.n.n.n.n.n.n.n.n.n.n.n.n.n.n.n.n.n.n.n.n.n.n.n.n.n.n.n.n.n.",
"n.n.n.h.x.x.x.x.x.x.x.x.x.x.x.x.x.A           n.              n.n.n.n.n.n.n.n.n.n.n.n.n.n.n.n.n.n.n.n.n.n.n.n.n.n.n.n.n.n.n.n.n.",
"n.n.n.x.x.x.x.x.h.P h a c T r.x.h.;           n.n.        n.n.n.n.n.n.n.n.n.n.n.n.n.n.n.n.n.n.n.n.n.n.n.n.n.n.n.n.n.n.n.n.n.n.n.",
"n.n.5.x.x.x.x.x.a           % F _             n.n.n.n.n.n.n.n.n.n.n.n.n.n.n.n.n.n.n.n.n.n.n.n.n.n.n.n.n.n.n.n.n.n.n.n.n.n.n.n.n.",
"n.n.p.x.x.x.x.@.                #           n.n.n.n.n.n.n.n.n.n.n.n.n.n.n.n.n.n.n.n.n.n.n.n.n.n.n.n.n.n.n.n.n.n.n.n.n.n.n.n.n.n.",
"n.n.y.x.x.x.x.^                         a y.z.p.p.p.4     n.n.n.n.n.n.x.h.h.p.p.8.    p.h.h.p.%     y.h.x.h.y.r.n       n.n.n.n.",
"n.n.r.x.x.x.x.;.                        - z.z.z.z.h.|         n.n.n.n.x.z.x.x.x.4.    p.x.x.h...L h.z.z.x.x.x.x.x.8.4       n.n.",
"n.n.I x.x.x.x.x.T                         h.z.z.z.z.>.        n.n.n._ x.z.z.z.z.6     8.x.x.x.q.p.h.x.x.x.x.x.x.x.x.r.6       n.",
"n.n.  h.x.x.x.x.x.| ;       n.n.n.    n.  c l.z.z.z.h.,         n.n.x.x.z.z.x.)       ,.x.x.x.x.z.z.x.x.x.x.x.x.x.x.x.$.        ",
"n.n.  ..x.x.x.x.x.x.r.I         n.n.n.n.    4.x.x.x.z.D         n.n.x.x.x.x.x.4       ,.x.x.x.x.z.x...V c F 4.x.x.x.x.x.g       ",
"n.n.    ;.x.x.x.x.x.x.x.r.^         n.n.n.  Z x.x.x.x.>.        n.h.x.x.x.x._         4.x.x.x.x.r.r         # $.x.x.x.x.^       ",
"n.n.      { x.x.x.x.x.x.x.x.r.B       n.n.    r.x.x.x.x.r         x.x.x.x.x.w         r.x.x.x.x.h             d x.x.x.x.;.      ",
"n.n.n.      h ;.x.x.x.x.x.x.x.x.)             W x.x.x.x.W       P x.x.x.x.$.          p.x.x.x.x.t               p.x.x.x.p.      ",
"n.n.n.          c >.x.x.x.x.x.x.x.T             p.x.x.x.p.&     8.x.x.x.x.l           p.x.x.x.x.t               p.x.x.x.x.      ",
"n.n.n.n.            M r.x.x.x.x.x.h.r           ..x.x.x.z.M     h.x.x.x.4.            h.x.x.x.x.a               h.x.x.x.x.      ",
"n.n.n.n.n.            , @.z.z.z.x.x.|           * h.x.x.x.$.  c h.x.x.x.M             h.x.x.x.x.t         n.n.  h.x.x.x.x.      ",
"n.n.n.n.n.n.            # $.z.z.x.x.p.            ;.x.x.x.x.8 ..x.x.x.r.%             p.x.x.x.x.a         n.n.  h.x.x.x.x.      ",
"n.n.n.n.n.c.c.n.1         8 h.h.x.x.x.8           d x.x.x.x.^ h.x.x.x.K               h.x.x.x.x.a         n.n.  l.z.x.x.x.      ",
"n.n.n.v.c.n.n.n.n.n.        8.x.x.x.x.N             4.x.x.x.x.x.x.x.h.;           n.  h.x.x.x.x.t         n.n.  z.z.x.x.x.      ",
"n.n.n.n.n.n.n.n.n.n.n.n.    r.x.z.x.x.w             F x.x.x.x.x.z.z.W             n.  h.x.x.x.x.a         n.n.  l.z.x.x.x.      ",
"n.n.n.n.x.y.        n.n.n.M h.x.z.z.z.;         n.    r.x.x.x.x.z.z.6             n.  h.x.x.x.x.t         n.n.  z.z.x.x.x.      ",
"n.n.n.h.x.x.p...&       r.h.x.x.z.z.@.          n.    ) h.x.x.x.z.|             n.n.  h.x.x.x.x.a         n.n.  z.z.z.x.x.      ",
"n.n.n.x.x.x.x.x.h.h.h.h.x.x.x.x.z.l.a           n.n.    p.x.x.x.z.t             n.n.  x.x.x.x.x.t         n.n.  l.z.z.z.x.      ",
"n.n.| x.x.x.x.x.x.x.x.z.x.x.x.x.z.F             n.n.    #.x.x.x.=.            n.n.n.  h.x.x.x.x.a         n.n.  z.x.x.x.x.      ",
"n.n.h.x.x.x.x.x.x.x.x.z.x.x.h.h.B               n.n.n.  < h.x.x.z             n.n.n.  h.x.x.x.x.t         n.n.  z.x.x.x.x.      ",
"n.n.  F $.r.x.x.x.x.z.z.z.p.T 4               n.n.n.n.    >.x.8.#           n.n.n.n.  h.x.x.z.z.a         n.n.  z.z.x.x.x.      ",
"n.n.        0 x A L Z c r #                   n.n.n.n.n.  d K w             n.n.n.n.                      n.n.                  ",
"n.n.                                        n.n.n.n.n.n.                  n.n.n.n.n.                      n.n.                  ",
"n.n.n.                                    n.n.n.n.n.n.n.n.                n.n.n.n.n.n.                    n.n.n.                ",
"n.n.n.n.                                n.n.n.n.n.n.n.n.n.              n.n.n.n.n.n.n.                  n.n.n.n.                ",
"n.n.n.n.n.n.                      n.n.n.n.n.n.n.n.n.n.n.n.n.          n.n.n.n.n.n.n.n.n.n.            n.n.n.n.n.n.              ",
"n.n.n.n.n.n.n.n.n.n.n.n.n.n.n.n.n.n.n.n.n.n.n.n.n.n.n.n.n.n.n.n.n.n.n.n.n.n.n.n.n.n.n.n.n.n.n.n.n.n.n.n.n.n.n.n.n.n.n.n.n.n.n.n.",
"n.n.n.n.n.n.n.n.n.n.n.n.n.n.n.n.n.n.n.n.n.n.n.n.n.n.n.n.n.n.n.n.n.n.n.n.n.n.n.n.n.n.n.n.n.n.n.n.n.n.n.n.n.n.n.n.n.n.n.n.n.n.n.n.",
"n.n.n.n.n.n.n.n.n.n.n.n.n.n.n.n.n.n.n.n.n.n.n.n.n.n.n.n.n.n.n.n.n.n.n.n.n.n.n.n.n.n.n.n.n.n.n.n.n.n.n.n.n.n.n.n.n.n.n.n.n.n.n.n.",
"n.n.n.n.n.n.n.n.n.n.n.n.n.n.n.n.n.n.n.n.n.n.n.n.n.n.n.n.n.n.n.n.n.n.n.n.n.n.n.n.n.n.n.n.n.n.n.n.n.n.n.n.n.n.n.n.n.n.n.n.n.n.n.n."
};
